<?xml version="1.0" standalone="no"?>
<!DOCTYPE svg PUBLIC "-//W3C//DTD SVG 20010904//EN"
 "http://www.w3.org/TR/2001/REC-SVG-20010904/DTD/svg10.dtd">
<svg version="1.0" xmlns="http://www.w3.org/2000/svg"
 width="64.000000pt" height="64.000000pt" viewBox="0 0 64.000000 64.000000"
 preserveAspectRatio="xMidYMid meet">

<g transform="translate(0.000000,64.000000) scale(0.100000,-0.100000)"
fill="#000000" stroke="none">
<path d="M22 524 c-21 -15 -22 -20 -22 -204 0 -184 1 -189 22 -204 33 -24 563
-24 596 0 21 15 22 20 22 204 0 184 -1 189 -22 204 -33 24 -563 24 -596 0z
m556 -81 c3 -10 -18 -13 -82 -13 -79 0 -105 7 -89 24 13 12 166 2 171 -11z
m-410 -80 l3 -43 -55 0 -56 0 0 38 c0 21 3 42 7 46 4 4 28 6 53 4 l45 -3 3
-42z m-18 -123 c0 -5 -20 -10 -45 -10 -25 0 -45 5 -45 10 0 6 20 10 45 10 25
0 45 -4 45 -10z m120 0 c0 -5 -20 -10 -45 -10 -25 0 -45 5 -45 10 0 6 20 10
45 10 25 0 45 -4 45 -10z m130 0 c0 -5 -20 -10 -45 -10 -25 0 -45 5 -45 10 0
6 20 10 45 10 25 0 45 -4 45 -10z m120 0 c0 -5 -20 -10 -45 -10 -25 0 -45 5
-45 10 0 6 20 10 45 10 25 0 45 -4 45 -10z m-210 -60 c0 -6 -48 -10 -125 -10
-77 0 -125 4 -125 10 0 6 48 10 125 10 77 0 125 -4 125 -10z"/>
</g>
</svg>
